<?xml version="1.0" standalone="no"?><!DOCTYPE svg PUBLIC "-//W3C//DTD SVG 1.1//EN" "http://www.w3.org/Graphics/SVG/1.1/DTD/svg11.dtd"><svg t="1683114484013" class="icon" viewBox="0 0 1024 1024" version="1.1" xmlns="http://www.w3.org/2000/svg" p-id="2188" xmlns:xlink="http://www.w3.org/1999/xlink" width="200" height="200"><path d="M853.333333 254.293333h-170.666666v-50.631111a62.577778 62.577778 0 0 0-62.577778-62.577778H402.204444A62.577778 62.577778 0 0 0 341.333333 203.662222v50.631111H170.666667v56.888889h56.888889v512a62.577778 62.577778 0 0 0 62.577777 62.577778h443.733334a62.577778 62.577778 0 0 0 62.577777-62.577778v-512h56.888889z m-455.111111-50.631111a5.688889 5.688889 0 0 1 5.688889-5.688889h219.591111a5.688889 5.688889 0 0 1 5.688889 5.688889v50.631111H398.222222z m341.333334 616.675556a5.12 5.12 0 0 1-5.688889 5.688889H290.133333a5.12 5.12 0 0 1-5.688889-5.688889V311.182222h455.111112z" p-id="2189"></path><path d="M398.222222 431.786667h56.888889v274.773333H398.222222zM568.888889 431.786667h56.888889v274.773333h-56.888889z" p-id="2190"></path></svg>