<?xml version="1.0" standalone="no"?><!DOCTYPE svg PUBLIC "-//W3C//DTD SVG 1.1//EN"
        "http://www.w3.org/Graphics/SVG/1.1/DTD/svg11.dtd">
<svg t="1683116241276" class="icon" viewBox="0 0 1024 1024" version="1.1" xmlns="http://www.w3.org/2000/svg" p-id="1623"
     xmlns:xlink="http://www.w3.org/1999/xlink" width="200" height="200">
    <path d="M512 96c229.76 0 416 186.24 416 416s-186.24 416-416 416S96 741.76 96 512 282.24 96 512 96z m-140.384 230.72a32 32 0 0 0-42.24 47.904L466.72 512l-137.344 137.376-2.656 3.008a32 32 0 0 0 47.904 42.24L512 557.28l137.376 137.344 3.008 2.656a32 32 0 0 0 42.24-47.904L557.28 512l137.344-137.376 2.656-3.008a32 32 0 0 0-47.904-42.24L512 466.72l-137.376-137.344z"
          p-id="1624"></path>
</svg>