<?xml version="1.0" standalone="no"?><!DOCTYPE svg PUBLIC "-//W3C//DTD SVG 1.1//EN"
        "http://www.w3.org/Graphics/SVG/1.1/DTD/svg11.dtd">
<svg t="1683116245400" class="icon" viewBox="0 0 1024 1024" version="1.1" xmlns="http://www.w3.org/2000/svg" p-id="1767"
     xmlns:xlink="http://www.w3.org/1999/xlink" width="200" height="200">
    <path d="M512 96c229.76 0 416 186.24 416 416s-186.24 416-416 416S96 741.76 96 512 282.24 96 512 96z m214.624 265.376a32 32 0 0 0-45.248 0l-233.408 233.28-105.344-105.28-3.008-2.688a32 32 0 0 0-42.24 47.936l128 127.904 3.008 2.656a32 32 0 0 0 42.24-2.656l256-255.904 2.656-3.008a32 32 0 0 0-2.656-42.24z"
          p-id="1768"></path>
</svg>