<?xml version="1.0" standalone="no"?><!DOCTYPE svg PUBLIC "-//W3C//DTD SVG 1.1//EN" "http://www.w3.org/Graphics/SVG/1.1/DTD/svg11.dtd"><svg t="1683107206263" class="icon" viewBox="0 0 1024 1024" version="1.1" xmlns="http://www.w3.org/2000/svg" p-id="1966" xmlns:xlink="http://www.w3.org/1999/xlink" width="200" height="200"><path d="M849.066667 466.773333a60.16 60.16 0 0 0 0-85.333333l-193.28-192.426667a59.733333 59.733333 0 0 0-42.666667-17.493333 61.44 61.44 0 0 0-42.666667 17.493333l-395.52 396.8a60.16 60.16 0 0 0 0 85.333334l144.64 143.786666a128 128 0 0 0 83.2 38.4H853.333333v-42.666666h-347.306666zM205.226667 640a17.493333 17.493333 0 0 1-5.12-11.946667 17.493333 17.493333 0 0 1 5.12-12.373333L384 436.053333l216.746667 217.173334L469.333333 784.64a85.333333 85.333333 0 0 1-120.746666 0z" p-id="1967"></path></svg>