<?xml version="1.0" encoding="utf-8"?>
<!-- Generator: Adobe Illustrator 25.2.1, SVG Export Plug-In . SVG Version: 6.00 Build 0)  -->
<svg version="1.1" id="图层_1" xmlns="http://www.w3.org/2000/svg" xmlns:xlink="http://www.w3.org/1999/xlink" x="0px" y="0px"
	 viewBox="0 0 200 200" style="enable-background:new 0 0 200 200;" xml:space="preserve">
<path d="M100,25.5c-21.7,0-41.3,9.2-55,24V24.5H25v40v20h20h40v-20H58.5c10.4-12,26-19.5,43.3-18.9c29.2,0.9,52.8,25,53.2,54.2
	c0.4,30.7-24.4,55.8-55,55.8c-23,0-42.8-14.2-50.9-34.2l-0.1,0c-1.4-3.8-5.1-6.4-9.3-6.4c-5.5,0-10,4.5-10,10c0,1.7,0.4,3.3,1.2,4.7
	c11.6,27.5,39,46.7,70.9,46c38.8-0.9,72.4-34.3,73.3-73.1C176,60.1,142,25.5,100,25.5z"/>
</svg>
