<?xml version="1.0" encoding="utf-8"?>
<!-- Generator: Adobe Illustrator 25.2.1, SVG Export Plug-In . SVG Version: 6.00 Build 0)  -->
<svg version="1.1" id="图层_1" xmlns="http://www.w3.org/2000/svg" xmlns:xlink="http://www.w3.org/1999/xlink" x="0px" y="0px"
	 viewBox="0 0 200 200" style="enable-background:new 0 0 200 200;" xml:space="preserve">
<path d="M155,169.2c-3.3,0-6.5-1.3-8.8-3.7l-29.5-30c-26.9,15.1-61,5.5-76.1-21.4S35,53.1,61.9,38s61-5.5,76.1,21.4
	c10.5,18.7,9.4,41.9-3,59.5l29.2,29.3c4.7,5,4.5,12.9-0.5,17.7C161.4,168,158.2,169.2,155,169.2z M88.3,54.2
	c-18.1,0-32.8,14.6-32.8,32.7c0,18.1,14.6,32.8,32.7,32.8S121,105.1,121,87c0,0,0-0.1,0-0.1c0-18-14.5-32.6-32.5-32.7H88.3z"/>
<path d="M166.7,144.8L140,118c17.2-28.5,8.1-65.5-20.4-82.7s-65.5-8.1-82.7,20.4s-8.1,65.5,20.4,82.7C75,149.1,97,150,115.5,140.7
	l27.8,27.8c6.5,6.5,17.1,6.5,23.6,0c0,0,0,0,0,0C173.3,161.9,173.2,151.3,166.7,144.8C166.7,144.8,166.7,144.8,166.7,144.8
	L166.7,144.8z M160.8,162.5c-3.3,3.2-8.5,3.2-11.8,0l-32.3-32.2c-24,15.8-56.2,9.2-72-14.8s-9.2-56.2,14.8-72s56.2-9.2,72,14.8
	c12.3,18.7,11.3,43.2-2.6,60.8l31.8,31.7c3.3,3.2,3.4,8.4,0.2,11.8H160.8z"/>
<path d="M67.7,81.1h41.7v11.7H67.7L67.7,81.1z"/>
</svg>
