<?xml version="1.0" standalone="no"?><!DOCTYPE svg PUBLIC "-//W3C//DTD SVG 1.1//EN"
        "http://www.w3.org/Graphics/SVG/1.1/DTD/svg11.dtd">
<svg t="1675690957270" class="icon" viewBox="0 0 1024 1024" version="1.1" xmlns="http://www.w3.org/2000/svg" p-id="809"
     xmlns:xlink="http://www.w3.org/1999/xlink" width="200" height="200">
    <path d="M779.8784 878.1312H334.0288A95.0784 95.0784 0 0 1 239.104 783.36V240.64a94.72 94.72 0 0 1 94.6176-94.7712h447.744A94.1568 94.1568 0 0 1 875.52 239.9232v542.72a95.744 95.744 0 0 1-95.6416 95.488z m-446.1568-670.72A33.2288 33.2288 0 0 0 300.544 240.64v542.72a33.5872 33.5872 0 0 0 33.4848 33.536h445.8496a34.2528 34.2528 0 0 0 34.2016-34.2016v-542.72a32.6656 32.6656 0 0 0-32.6144-32.6144z"
           p-id="810"></path>
    <path d="M448.7168 315.1872m30.72 0l245.1968 0q30.72 0 30.72 30.72l0 0q0 30.72-30.72 30.72l-245.1968 0q-30.72 0-30.72-30.72l0 0q0-30.72 30.72-30.72Z"
           p-id="811"></path>
    <path d="M448.7168 430.336m30.72 0l104.6528 0q30.72 0 30.72 30.72l0 0q0 30.72-30.72 30.72l-104.6528 0q-30.72 0-30.72-30.72l0 0q0-30.72 30.72-30.72Z"
           p-id="812"></path>
    <path d="M179.2 282.8288m30.72 0l119.808 0q30.72 0 30.72 30.72l0 0q0 30.72-30.72 30.72l-119.808 0q-30.72 0-30.72-30.72l0 0q0-30.72 30.72-30.72Z"
           p-id="813"></path>
    <path d="M179.2 416.9728m30.72 0l119.808 0q30.72 0 30.72 30.72l0 0q0 30.72-30.72 30.72l-119.808 0q-30.72 0-30.72-30.72l0 0q0-30.72 30.72-30.72Z"
           p-id="814"></path>
    <path d="M179.2 551.168m30.72 0l119.808 0q30.72 0 30.72 30.72l0 0q0 30.72-30.72 30.72l-119.808 0q-30.72 0-30.72-30.72l0 0q0-30.72 30.72-30.72Z"
           p-id="815"></path>
</svg>