<?xml version="1.0" standalone="no"?><!DOCTYPE svg PUBLIC "-//W3C//DTD SVG 1.1//EN" "http://www.w3.org/Graphics/SVG/1.1/DTD/svg11.dtd"><svg class="icon" width="200px" height="200.00px" viewBox="0 0 1024 1024" version="1.1" xmlns="http://www.w3.org/2000/svg"><path d="M672.911 226.447A326.697 326.697 0 0 0 512 184.32c-180.982 0-327.68 146.698-327.68 327.68S331.018 839.68 512 839.68 839.68 692.982 839.68 512a61.44 61.44 0 0 1 122.88 0c0 248.832-201.728 450.56-450.56 450.56S61.44 760.832 61.44 512 263.168 61.44 512 61.44c90.87 0 177.377 27.095 250.163 75.756l69.694-69.694c8.355-8.356 22.22-8.028 30.965 0.717 4.055 4.075 6.472 9.462 6.759 15.094l11.018 231.956a31.068 31.068 0 0 1-32.85 32.85L615.793 337.08a23.142 23.142 0 0 1-21.873-22.917c0-5.611 2.17-10.916 6.062-14.786l72.909-72.91z" /></svg>